<svg width="2272" height="581" xmlns="http://www.w3.org/2000/svg">
 <g>
  <title>Layer 1</title>
  <ellipse id="svg_5" cy="354.66667" cx="188.16667" fill="#b4dffe"/>
  <ellipse ry="230" rx="224" id="svg_33" cy="677.83341" cx="56.3333" fill="#ffffff"/>
  <ellipse ry="234.00002" rx="188.9999" id="svg_34" cy="595.8334" cx="275.33324" fill="#ffffff"/>
  <ellipse ry="239.00007" rx="137.99985" id="svg_35" cy="594.83341" cx="454.33303" fill="#ffffff"/>
  <ellipse ry="214" rx="145.9999" id="svg_36" cy="585.8334" cx="610.33278" fill="#ffffff"/>
  <ellipse ry="97.00008" rx="70.00006" id="svg_1" cy="844.83379" cx="326.33265" fill="#ff0000"/>
  <ellipse ry="274.00023" rx="152.00013" id="svg_2" cy="655.83363" cx="782.33303" fill="#ffffff"/>
  <ellipse ry="269.00024" rx="170.00014" id="svg_3" cy="658.83362" cx="922.33315" fill="#ffffff"/>
  <ellipse ry="284.00024" rx="193.00016" id="svg_4" cy="653.83362" cx="1093.33329" fill="#ffffff"/>
  <ellipse ry="134.00011" rx="174.00015" id="svg_8" cy="475.83348" cx="64.33243" fill="#ffffff"/>
  <ellipse ry="66.00006" rx="53.00004" id="svg_9" cy="575.83356" cx="427.33273" fill="#ffffff"/>
  <ellipse ry="305.00025" rx="158.00012" id="svg_12" cy="668.83364" cx="1248.33343" fill="#ffffff"/>
  <ellipse ry="300.00025" rx="143.00012" id="svg_13" cy="681.83365" cx="1397.33354" fill="#ffffff"/>
  <ellipse ry="258.00022" rx="204.00017" id="svg_14" cy="643.83362" cx="1572.33369" fill="#ffffff"/>
  <ellipse ry="256.00021" rx="274.00023" id="svg_15" cy="673.83364" cx="1790.33387" fill="#ffffff"/>
  <ellipse ry="25.00002" rx="22.00002" id="svg_16" cy="680.83364" cx="2172.33419" fill="#ff0000"/>
  <ellipse ry="288.00024" rx="173.00014" id="svg_17" cy="647.83362" cx="1995.33404" fill="#ffffff"/>
  <ellipse ry="290.00024" rx="208.00017" id="svg_18" cy="649.83362" cx="2166.33418" fill="#ffffff"/>
 </g>

</svg>